# xmcd CD database file
#
# Track frame offsets:
#	150
#	16264
#	28028
#	49649
#	70902
#	90386
#	116315
#	135415
#	155849
#	170599
#	192347
#	218553
#	236563
#
# Disc length: 3434 seconds
#
# Revision: 0
# Processed by: cddbd v1.5.2PL0 Copyright (c) Steve Scherf et al.
# Submitted via: CDex 1.51
#
DISCID=a50d680d
DTITLE=Bandari - From Nowhere To Eternity [CD2)
DYEAR=2007
DGENRE=New Age
TTITLE0=Allegia
TTITLE1=Irish Lullaby
TTITLE2=Birds Over The Rainbow
TTITLE3=Love Is Blue
TTITLE4=Romance
TTITLE5=The Wind Of Change
TTITLE6=Melody Of Love
TTITLE7=Starry Sky
TTITLE8=The First Snowflakes
TTITLE9=Snowdreams
TTITLE10=The Blue Sea The Azure Sky
TTITLE11=Rainbow River
TTITLE12=Magic Winds
EXTD=YEAR: 2007
EXTT0=
EXTT1=
EXTT2=
EXTT3=
EXTT4=
EXTT5=
EXTT6=
EXTT7=
EXTT8=
EXTT9=
EXTT10=
EXTT11=
EXTT12=
PLAYORDER=
